<?xml version="1.0" encoding="UTF-8" standalone="no"?>
<svg
   xmlns:dc="http://purl.org/dc/elements/1.1/"
   xmlns:cc="http://creativecommons.org/ns#"
   xmlns:rdf="http://www.w3.org/1999/02/22-rdf-syntax-ns#"
   xmlns:svg="http://www.w3.org/2000/svg"
   xmlns="http://www.w3.org/2000/svg"
   xmlns:sodipodi="http://sodipodi.sourceforge.net/DTD/sodipodi-0.dtd"
   xmlns:inkscape="http://www.inkscape.org/namespaces/inkscape"
   sodipodi:docname="ideogram-cjk-variant.svg"
   id="svg4"
   viewBox="0 0 24 24"
   height="24"
   width="24"
   version="1.1"
   inkscape:version="1.0.1 (3bc2e813f5, 2020-09-07)">
  <metadata
     id="metadata10">
    <rdf:RDF>
      <cc:Work
         rdf:about="">
        <dc:format>image/svg+xml</dc:format>
        <dc:type
           rdf:resource="http://purl.org/dc/dcmitype/StillImage" />
        <dc:title></dc:title>
      </cc:Work>
    </rdf:RDF>
  </metadata>
  <defs
     id="defs8">
    <filter
       style="color-interpolation-filters:sRGB;"
       inkscape:label="Fade to Black or White"
       id="filter80">
      <feColorMatrix
         values="1 0 0 0 0 0 1 0 0 0 0 0 1 0 0 0 0 0 1 0"
         id="feColorMatrix78"
         result="fbSourceGraphic" />
      <feColorMatrix
         result="fbSourceGraphicAlpha"
         in="fbSourceGraphic"
         values="0 0 0 -1 0 0 0 0 -1 0 0 0 0 -1 0 0 0 0 1 0"
         id="feColorMatrix82" />
      <feColorMatrix
         id="feColorMatrix84"
         values="1 0 0 0 0 0 1 0 0 0 0 0 1 0 0 0 0 0 1 0"
         in="fbSourceGraphic" />
    </filter>
  </defs>
  <sodipodi:namedview
     pagecolor="#ffffff"
     bordercolor="#666666"
     borderopacity="1"
     objecttolerance="10"
     gridtolerance="10"
     guidetolerance="10"
     inkscape:pageopacity="0"
     inkscape:pageshadow="2"
     inkscape:window-width="1920"
     inkscape:window-height="1027"
     id="namedview6"
     showgrid="false"
     inkscape:pagecheckerboard="true"
     inkscape:zoom="35.833333"
     inkscape:cx="1.6334729"
     inkscape:cy="10.934489"
     inkscape:window-x="-8"
     inkscape:window-y="-8"
     inkscape:window-maximized="1"
     inkscape:current-layer="svg4"
     inkscape:document-rotation="0" />
  <path
     d="M11 4V6H4V8H15.36C15.13 8.87 14.63 9.77 13.88 10.69C13.35 11.35 12.71 12 12 12.67C11.29 12 10.65 11.35 10.12 10.69C9.65 10.12 9.3 9.55 9.03 9H6.85C7.21 10.05 7.82 11.03 8.56 11.95C9.13 12.66 9.79 13.34 10.5 14L5.36 18.23L6.64 19.77L12 15.34L17.36 19.77L18.64 18.23L13.5 14C14.21 13.34 14.87 12.66 15.44 11.95C16.41 10.74 17.16 9.43 17.4 8H20V6H13V4Z"
     id="path2"
     style="opacity:1;fill:#ffffff" />
  <path
     style="fill:#000000;fill-opacity:0;stroke-width:0.027907"
     d="M 6.0697674,19.057884 C 5.7627907,18.688177 5.4837296,18.350762 5.4496316,18.308072 l -0.061996,-0.07762 2.5653507,-2.111037 2.5653507,-2.111037 -0.6207841,-0.62047 C 8.8959321,12.386799 8.1844222,11.512621 7.6315063,10.603792 7.4139793,10.246243 7.1151561,9.6480332 6.9802245,9.3 L 6.8693247,9.0139535 H 7.9396303 9.0099357 L 9.1818095,9.327907 c 0.3602531,0.6580563 0.8344255,1.304081 1.4827315,2.020112 0.410694,0.453597 1.290895,1.321743 1.340119,1.321765 0.0514,2.4e-5 1.260956,-1.225755 1.597207,-1.618621 0.606935,-0.709126 1.078726,-1.399121 1.38342,-2.023256 0.14566,-0.298368 0.32233,-0.7565372 0.373944,-0.9697675 l 0.01858,-0.076744 H 9.698206 4.0186047 V 6.9906977 6 H 7.5209302 11.023256 V 5.0093023 4.0186047 H 12 12.976744 V 5.0093023 6 h 3.502326 3.502325 V 6.9906977 7.9813953 H 18.6857 17.390004 l -0.03178,0.1604652 c -0.114965,0.5804841 -0.306567,1.1281724 -0.612623,1.7511628 -0.596959,1.2151357 -1.53385,2.4357517 -2.82817,3.6846427 l -0.440709,0.42524 2.569309,2.114189 c 2.288051,1.882752 2.565069,2.119095 2.530584,2.159012 -0.0213,0.02465 -0.298617,0.358777 -0.616263,0.742498 -0.317645,0.383721 -0.586825,0.701012 -0.598177,0.705093 -0.01135,0.0041 -1.217602,-0.981734 -2.680556,-2.190698 -1.462955,-1.208964 -2.669414,-2.198116 -2.681022,-2.198116 -0.01161,0 -1.211062,0.983663 -2.6654565,2.185918 -1.4543942,1.202255 -2.6585012,2.191174 -2.6757933,2.197597 -0.017292,0.0064 -0.282603,-0.290808 -0.5895798,-0.660515 z"
     id="path12" />
  <path
     style="fill:#ffffff;fill-opacity:0;stroke-width:0.027907"
     d="M 6.0697674,19.057884 C 5.7627907,18.688177 5.4837296,18.350762 5.4496316,18.308072 l -0.061996,-0.07762 2.5653507,-2.111037 2.5653507,-2.111037 -0.6207841,-0.62047 C 8.8959321,12.386799 8.1844222,11.512621 7.6315063,10.603792 7.4139793,10.246243 7.1151561,9.6480332 6.9802245,9.3 L 6.8693247,9.0139535 H 7.9396303 9.0099357 L 9.1818095,9.327907 c 0.3602531,0.6580563 0.8344255,1.304081 1.4827315,2.020112 0.410694,0.453597 1.290895,1.321743 1.340119,1.321765 0.0514,2.4e-5 1.260956,-1.225755 1.597207,-1.618621 0.606935,-0.709126 1.078726,-1.399121 1.38342,-2.023256 0.14566,-0.298368 0.32233,-0.7565372 0.373944,-0.9697675 l 0.01858,-0.076744 H 9.698206 4.0186047 V 6.9906977 6 H 7.5209302 11.023256 V 5.0093023 4.0186047 H 12 12.976744 V 5.0093023 6 h 3.502326 3.502325 V 6.9906977 7.9813953 H 18.6857 17.390004 l -0.03178,0.1604652 c -0.114965,0.5804841 -0.306567,1.1281724 -0.612623,1.7511628 -0.596959,1.2151357 -1.53385,2.4357517 -2.82817,3.6846427 l -0.440709,0.42524 2.569309,2.114189 c 2.288051,1.882752 2.565069,2.119095 2.530584,2.159012 -0.0213,0.02465 -0.298617,0.358777 -0.616263,0.742498 -0.317645,0.383721 -0.586825,0.701012 -0.598177,0.705093 -0.01135,0.0041 -1.217602,-0.981734 -2.680556,-2.190698 -1.462955,-1.208964 -2.669414,-2.198116 -2.681022,-2.198116 -0.01161,0 -1.211062,0.983663 -2.6654565,2.185918 -1.4543942,1.202255 -2.6585012,2.191174 -2.6757933,2.197597 -0.017292,0.0064 -0.282603,-0.290808 -0.5895798,-0.660515 z"
     id="path14" />
  <path
     style="fill:#ffffff;fill-opacity:0;stroke-width:0.027907"
     d="M 6.0697674,19.057884 C 5.7627907,18.688177 5.4837296,18.350762 5.4496316,18.308072 l -0.061996,-0.07762 2.5653507,-2.111037 2.5653507,-2.111037 -0.6207841,-0.62047 C 8.8959321,12.386799 8.1844222,11.512621 7.6315063,10.603792 7.4139793,10.246243 7.1151561,9.6480332 6.9802245,9.3 L 6.8693247,9.0139535 H 7.9396303 9.0099357 L 9.1818095,9.327907 c 0.3602531,0.6580563 0.8344255,1.304081 1.4827315,2.020112 0.410694,0.453597 1.290895,1.321743 1.340119,1.321765 0.0514,2.4e-5 1.260956,-1.225755 1.597207,-1.618621 0.606935,-0.709126 1.078726,-1.399121 1.38342,-2.023256 0.14566,-0.298368 0.32233,-0.7565372 0.373944,-0.9697675 l 0.01858,-0.076744 H 9.698206 4.0186047 V 6.9906977 6 H 7.5209302 11.023256 V 5.0093023 4.0186047 H 12 12.976744 V 5.0093023 6 h 3.502326 3.502325 V 6.9906977 7.9813953 H 18.6857 17.390004 l -0.03178,0.1604652 c -0.114965,0.5804841 -0.306567,1.1281724 -0.612623,1.7511628 -0.596959,1.2151357 -1.53385,2.4357517 -2.82817,3.6846427 l -0.440709,0.42524 2.569309,2.114189 c 2.288051,1.882752 2.565069,2.119095 2.530584,2.159012 -0.0213,0.02465 -0.298617,0.358777 -0.616263,0.742498 -0.317645,0.383721 -0.586825,0.701012 -0.598177,0.705093 -0.01135,0.0041 -1.217602,-0.981734 -2.680556,-2.190698 -1.462955,-1.208964 -2.669414,-2.198116 -2.681022,-2.198116 -0.01161,0 -1.211062,0.983663 -2.6654565,2.185918 -1.4543942,1.202255 -2.6585012,2.191174 -2.6757933,2.197597 -0.017292,0.0064 -0.282603,-0.290808 -0.5895798,-0.660515 z"
     id="path16" />
  <path
     style="fill:#ffffff;fill-opacity:0;stroke-width:0.027907"
     d="M 6.0697674,19.057884 C 5.7627907,18.688177 5.4837296,18.350762 5.4496316,18.308072 l -0.061996,-0.07762 2.5653507,-2.111037 2.5653507,-2.111037 -0.6207841,-0.62047 C 8.8959321,12.386799 8.1844222,11.512621 7.6315063,10.603792 7.4139793,10.246243 7.1151561,9.6480332 6.9802245,9.3 L 6.8693247,9.0139535 H 7.9396303 9.0099357 L 9.1818095,9.327907 c 0.3602531,0.6580563 0.8344255,1.304081 1.4827315,2.020112 0.410694,0.453597 1.290895,1.321743 1.340119,1.321765 0.0514,2.4e-5 1.260956,-1.225755 1.597207,-1.618621 0.606935,-0.709126 1.078726,-1.399121 1.38342,-2.023256 0.14566,-0.298368 0.32233,-0.7565372 0.373944,-0.9697675 l 0.01858,-0.076744 H 9.698206 4.0186047 V 6.9906977 6 H 7.5209302 11.023256 V 5.0093023 4.0186047 H 12 12.976744 V 5.0093023 6 h 3.502326 3.502325 V 6.9906977 7.9813953 H 18.6857 17.390004 l -0.03178,0.1604652 c -0.114965,0.5804841 -0.306567,1.1281724 -0.612623,1.7511628 -0.596959,1.2151357 -1.53385,2.4357517 -2.82817,3.6846427 l -0.440709,0.42524 2.569309,2.114189 c 2.288051,1.882752 2.565069,2.119095 2.530584,2.159012 -0.0213,0.02465 -0.298617,0.358777 -0.616263,0.742498 -0.317645,0.383721 -0.586825,0.701012 -0.598177,0.705093 -0.01135,0.0041 -1.217602,-0.981734 -2.680556,-2.190698 -1.462955,-1.208964 -2.669414,-2.198116 -2.681022,-2.198116 -0.01161,0 -1.211062,0.983663 -2.6654565,2.185918 -1.4543942,1.202255 -2.6585012,2.191174 -2.6757933,2.197597 -0.017292,0.0064 -0.282603,-0.290808 -0.5895798,-0.660515 z"
     id="path18" />
  <path
     style="fill:#ffffff;fill-opacity:0;stroke-width:0.027907"
     d="M 6.0697674,19.057884 C 5.7627907,18.688177 5.4837296,18.350762 5.4496316,18.308072 l -0.061996,-0.07762 2.5653507,-2.111037 2.5653507,-2.111037 -0.6207841,-0.62047 C 8.8959321,12.386799 8.1844222,11.512621 7.6315063,10.603792 7.4139793,10.246243 7.1151561,9.6480332 6.9802245,9.3 L 6.8693247,9.0139535 H 7.9396303 9.0099357 L 9.1818095,9.327907 c 0.3602531,0.6580563 0.8344255,1.304081 1.4827315,2.020112 0.410694,0.453597 1.290895,1.321743 1.340119,1.321765 0.0514,2.4e-5 1.260956,-1.225755 1.597207,-1.618621 0.606935,-0.709126 1.078726,-1.399121 1.38342,-2.023256 0.14566,-0.298368 0.32233,-0.7565372 0.373944,-0.9697675 l 0.01858,-0.076744 H 9.698206 4.0186047 V 6.9906977 6 H 7.5209302 11.023256 V 5.0093023 4.0186047 H 12 12.976744 V 5.0093023 6 h 3.502326 3.502325 V 6.9906977 7.9813953 H 18.6857 17.390004 l -0.03178,0.1604652 c -0.114965,0.5804841 -0.306567,1.1281724 -0.612623,1.7511628 -0.596959,1.2151357 -1.53385,2.4357517 -2.82817,3.6846427 l -0.440709,0.42524 2.569309,2.114189 c 2.288051,1.882752 2.565069,2.119095 2.530584,2.159012 -0.0213,0.02465 -0.298617,0.358777 -0.616263,0.742498 -0.317645,0.383721 -0.586825,0.701012 -0.598177,0.705093 -0.01135,0.0041 -1.217602,-0.981734 -2.680556,-2.190698 -1.462955,-1.208964 -2.669414,-2.198116 -2.681022,-2.198116 -0.01161,0 -1.211062,0.983663 -2.6654565,2.185918 -1.4543942,1.202255 -2.6585012,2.191174 -2.6757933,2.197597 -0.017292,0.0064 -0.282603,-0.290808 -0.5895798,-0.660515 z"
     id="path20" />
  <path
     style="fill:#ffffff;fill-opacity:0;stroke-width:0.027907"
     d="M 6.0697674,19.057884 C 5.7627907,18.688177 5.4837296,18.350762 5.4496316,18.308072 l -0.061996,-0.07762 2.5653507,-2.111037 2.5653507,-2.111037 -0.6207841,-0.62047 C 8.8959321,12.386799 8.1844222,11.512621 7.6315063,10.603792 7.4139793,10.246243 7.1151561,9.6480332 6.9802245,9.3 L 6.8693247,9.0139535 H 7.9396303 9.0099357 L 9.1818095,9.327907 c 0.3602531,0.6580563 0.8344255,1.304081 1.4827315,2.020112 0.410694,0.453597 1.290895,1.321743 1.340119,1.321765 0.0514,2.4e-5 1.260956,-1.225755 1.597207,-1.618621 0.606935,-0.709126 1.078726,-1.399121 1.38342,-2.023256 0.14566,-0.298368 0.32233,-0.7565372 0.373944,-0.9697675 l 0.01858,-0.076744 H 9.698206 4.0186047 V 6.9906977 6 H 7.5209302 11.023256 V 5.0093023 4.0186047 H 12 12.976744 V 5.0093023 6 h 3.502326 3.502325 V 6.9906977 7.9813953 H 18.6857 17.390004 l -0.03178,0.1604652 c -0.114965,0.5804841 -0.306567,1.1281724 -0.612623,1.7511628 -0.596959,1.2151357 -1.53385,2.4357517 -2.82817,3.6846427 l -0.440709,0.42524 2.569309,2.114189 c 2.288051,1.882752 2.565069,2.119095 2.530584,2.159012 -0.0213,0.02465 -0.298617,0.358777 -0.616263,0.742498 -0.317645,0.383721 -0.586825,0.701012 -0.598177,0.705093 -0.01135,0.0041 -1.217602,-0.981734 -2.680556,-2.190698 -1.462955,-1.208964 -2.669414,-2.198116 -2.681022,-2.198116 -0.01161,0 -1.211062,0.983663 -2.6654565,2.185918 -1.4543942,1.202255 -2.6585012,2.191174 -2.6757933,2.197597 -0.017292,0.0064 -0.282603,-0.290808 -0.5895798,-0.660515 z"
     id="path22" />
  <path
     style="fill:#ffffff;fill-opacity:0;stroke-width:0.027907"
     d=""
     id="path24" />
  <path
     style="fill:#ffffff;fill-opacity:0;stroke-width:0.027907"
     d=""
     id="path26" />
  <path
     style="fill:#ffffff;fill-opacity:0;stroke-width:0.027907"
     d=""
     id="path28" />
  <path
     style="fill:#ffffff;fill-opacity:0;stroke-width:0.027907"
     d=""
     id="path30" />
  <path
     style="fill:#ffffff;fill-opacity:0;stroke-width:0.027907"
     d="M 6.0697674,19.057884 C 5.7627907,18.688177 5.4837296,18.350762 5.4496316,18.308072 l -0.061996,-0.07762 2.5653507,-2.111037 2.5653507,-2.111037 -0.6207841,-0.62047 C 8.8959321,12.386799 8.1844222,11.512621 7.6315063,10.603792 7.4139793,10.246243 7.1151561,9.6480332 6.9802245,9.3 L 6.8693247,9.0139535 H 7.9396303 9.0099357 L 9.1818095,9.327907 c 0.3602531,0.6580563 0.8344255,1.304081 1.4827315,2.020112 0.410694,0.453597 1.290895,1.321743 1.340119,1.321765 0.0514,2.4e-5 1.260956,-1.225755 1.597207,-1.618621 0.606935,-0.709126 1.078726,-1.399121 1.38342,-2.023256 0.14566,-0.298368 0.32233,-0.7565372 0.373944,-0.9697675 l 0.01858,-0.076744 H 9.698206 4.0186047 V 6.9906977 6 H 7.5209302 11.023256 V 5.0093023 4.0186047 H 12 12.976744 V 5.0093023 6 h 3.502326 3.502325 V 6.9906977 7.9813953 H 18.6857 17.390004 l -0.03178,0.1604652 c -0.114965,0.5804841 -0.306567,1.1281724 -0.612623,1.7511628 -0.596959,1.2151357 -1.53385,2.4357517 -2.82817,3.6846427 l -0.440709,0.42524 2.569309,2.114189 c 2.288051,1.882752 2.565069,2.119095 2.530584,2.159012 -0.0213,0.02465 -0.298617,0.358777 -0.616263,0.742498 -0.317645,0.383721 -0.586825,0.701012 -0.598177,0.705093 -0.01135,0.0041 -1.217602,-0.981734 -2.680556,-2.190698 -1.462955,-1.208964 -2.669414,-2.198116 -2.681022,-2.198116 -0.01161,0 -1.211062,0.983663 -2.6654565,2.185918 -1.4543942,1.202255 -2.6585012,2.191174 -2.6757933,2.197597 -0.017292,0.0064 -0.282603,-0.290808 -0.5895798,-0.660515 z"
     id="path32" />
  <path
     style="fill:#ffffff;fill-opacity:0;stroke-width:0.027907"
     d="M 6.0697674,19.057884 C 5.7627907,18.688177 5.4837296,18.350762 5.4496316,18.308072 l -0.061996,-0.07762 2.5653507,-2.111037 2.5653507,-2.111037 -0.6207841,-0.62047 C 8.8959321,12.386799 8.1844222,11.512621 7.6315063,10.603792 7.4139793,10.246243 7.1151561,9.6480332 6.9802245,9.3 L 6.8693247,9.0139535 H 7.9396303 9.0099357 L 9.1818095,9.327907 c 0.3602531,0.6580563 0.8344255,1.304081 1.4827315,2.020112 0.410694,0.453597 1.290895,1.321743 1.340119,1.321765 0.0514,2.4e-5 1.260956,-1.225755 1.597207,-1.618621 0.606935,-0.709126 1.078726,-1.399121 1.38342,-2.023256 0.14566,-0.298368 0.32233,-0.7565372 0.373944,-0.9697675 l 0.01858,-0.076744 H 9.698206 4.0186047 V 6.9906977 6 H 7.5209302 11.023256 V 5.0093023 4.0186047 H 12 12.976744 V 5.0093023 6 h 3.502326 3.502325 V 6.9906977 7.9813953 H 18.6857 17.390004 l -0.03178,0.1604652 c -0.114965,0.5804841 -0.306567,1.1281724 -0.612623,1.7511628 -0.596959,1.2151357 -1.53385,2.4357517 -2.82817,3.6846427 l -0.440709,0.42524 2.569309,2.114189 c 2.288051,1.882752 2.565069,2.119095 2.530584,2.159012 -0.0213,0.02465 -0.298617,0.358777 -0.616263,0.742498 -0.317645,0.383721 -0.586825,0.701012 -0.598177,0.705093 -0.01135,0.0041 -1.217602,-0.981734 -2.680556,-2.190698 -1.462955,-1.208964 -2.669414,-2.198116 -2.681022,-2.198116 -0.01161,0 -1.211062,0.983663 -2.6654565,2.185918 -1.4543942,1.202255 -2.6585012,2.191174 -2.6757933,2.197597 -0.017292,0.0064 -0.282603,-0.290808 -0.5895798,-0.660515 z"
     id="path34" />
  <path
     style="fill:#ffffff;fill-opacity:0;stroke-width:0.027907"
     d="M 6.0697674,19.057884 C 5.7627907,18.688177 5.4837296,18.350762 5.4496316,18.308072 l -0.061996,-0.07762 2.5653507,-2.111037 2.5653507,-2.111037 -0.6207841,-0.62047 C 8.8959321,12.386799 8.1844222,11.512621 7.6315063,10.603792 7.4139793,10.246243 7.1151561,9.6480332 6.9802245,9.3 L 6.8693247,9.0139535 H 7.9396303 9.0099357 L 9.1818095,9.327907 c 0.3602531,0.6580563 0.8344255,1.304081 1.4827315,2.020112 0.410694,0.453597 1.290895,1.321743 1.340119,1.321765 0.0514,2.4e-5 1.260956,-1.225755 1.597207,-1.618621 0.606935,-0.709126 1.078726,-1.399121 1.38342,-2.023256 0.14566,-0.298368 0.32233,-0.7565372 0.373944,-0.9697675 l 0.01858,-0.076744 H 9.698206 4.0186047 V 6.9906977 6 H 7.5209302 11.023256 V 5.0093023 4.0186047 H 12 12.976744 V 5.0093023 6 h 3.502326 3.502325 V 6.9906977 7.9813953 H 18.6857 17.390004 l -0.03178,0.1604652 c -0.114965,0.5804841 -0.306567,1.1281724 -0.612623,1.7511628 -0.596959,1.2151357 -1.53385,2.4357517 -2.82817,3.6846427 l -0.440709,0.42524 2.569309,2.114189 c 2.288051,1.882752 2.565069,2.119095 2.530584,2.159012 -0.0213,0.02465 -0.298617,0.358777 -0.616263,0.742498 -0.317645,0.383721 -0.586825,0.701012 -0.598177,0.705093 -0.01135,0.0041 -1.217602,-0.981734 -2.680556,-2.190698 -1.462955,-1.208964 -2.669414,-2.198116 -2.681022,-2.198116 -0.01161,0 -1.211062,0.983663 -2.6654565,2.185918 -1.4543942,1.202255 -2.6585012,2.191174 -2.6757933,2.197597 -0.017292,0.0064 -0.282603,-0.290808 -0.5895798,-0.660515 z"
     id="path36" />
  <path
     style="fill:#ffffff;fill-opacity:0;stroke-width:0.027907"
     d="M 6.0697674,19.057884 C 5.7627907,18.688177 5.4837296,18.350762 5.4496316,18.308072 l -0.061996,-0.07762 2.5653507,-2.111037 2.5653507,-2.111037 -0.6207841,-0.62047 C 8.8959321,12.386799 8.1844222,11.512621 7.6315063,10.603792 7.4139793,10.246243 7.1151561,9.6480332 6.9802245,9.3 L 6.8693247,9.0139535 H 7.9396303 9.0099357 L 9.1818095,9.327907 c 0.3602531,0.6580563 0.8344255,1.304081 1.4827315,2.020112 0.410694,0.453597 1.290895,1.321743 1.340119,1.321765 0.0514,2.4e-5 1.260956,-1.225755 1.597207,-1.618621 0.606935,-0.709126 1.078726,-1.399121 1.38342,-2.023256 0.14566,-0.298368 0.32233,-0.7565372 0.373944,-0.9697675 l 0.01858,-0.076744 H 9.698206 4.0186047 V 6.9906977 6 H 7.5209302 11.023256 V 5.0093023 4.0186047 H 12 12.976744 V 5.0093023 6 h 3.502326 3.502325 V 6.9906977 7.9813953 H 18.6857 17.390004 l -0.03178,0.1604652 c -0.114965,0.5804841 -0.306567,1.1281724 -0.612623,1.7511628 -0.596959,1.2151357 -1.53385,2.4357517 -2.82817,3.6846427 l -0.440709,0.42524 2.569309,2.114189 c 2.288051,1.882752 2.565069,2.119095 2.530584,2.159012 -0.0213,0.02465 -0.298617,0.358777 -0.616263,0.742498 -0.317645,0.383721 -0.586825,0.701012 -0.598177,0.705093 -0.01135,0.0041 -1.217602,-0.981734 -2.680556,-2.190698 -1.462955,-1.208964 -2.669414,-2.198116 -2.681022,-2.198116 -0.01161,0 -1.211062,0.983663 -2.6654565,2.185918 -1.4543942,1.202255 -2.6585012,2.191174 -2.6757933,2.197597 -0.017292,0.0064 -0.282603,-0.290808 -0.5895798,-0.660515 z"
     id="path38" />
  <path
     style="fill:#000000;fill-opacity:0;stroke-width:0.027907;filter:url(#filter80)"
     d="M 6.0697674,19.057884 C 5.7627907,18.688177 5.4837296,18.350762 5.4496316,18.308072 l -0.061996,-0.07762 2.5653507,-2.111037 2.5653507,-2.111037 -0.6207841,-0.62047 C 8.8959321,12.386799 8.1844222,11.512621 7.6315063,10.603792 7.4139793,10.246243 7.1151561,9.6480332 6.9802245,9.3 L 6.8693247,9.0139535 H 7.9396303 9.0099357 L 9.1818095,9.327907 c 0.3602531,0.6580563 0.8344255,1.304081 1.4827315,2.020112 0.410694,0.453597 1.290895,1.321743 1.340119,1.321765 0.0514,2.4e-5 1.260956,-1.225755 1.597207,-1.618621 0.606935,-0.709126 1.078726,-1.399121 1.38342,-2.023256 0.14566,-0.298368 0.32233,-0.7565372 0.373944,-0.9697675 l 0.01858,-0.076744 H 9.698206 4.0186047 V 6.9906977 6 H 7.5209302 11.023256 V 5.0093023 4.0186047 H 12 12.976744 V 5.0093023 6 h 3.502326 3.502325 V 6.9906977 7.9813953 H 18.6857 17.390004 l -0.03178,0.1604652 c -0.114965,0.5804841 -0.306567,1.1281724 -0.612623,1.7511628 -0.596959,1.2151357 -1.53385,2.4357517 -2.82817,3.6846427 l -0.440709,0.42524 2.569309,2.114189 c 2.288051,1.882752 2.565069,2.119095 2.530584,2.159012 -0.0213,0.02465 -0.298617,0.358777 -0.616263,0.742498 -0.317645,0.383721 -0.586825,0.701012 -0.598177,0.705093 -0.01135,0.0041 -1.217602,-0.981734 -2.680556,-2.190698 -1.462955,-1.208964 -2.669414,-2.198116 -2.681022,-2.198116 -0.01161,0 -1.211062,0.983663 -2.6654565,2.185918 -1.4543942,1.202255 -2.6585012,2.191174 -2.6757933,2.197597 -0.017292,0.0064 -0.282603,-0.290808 -0.5895798,-0.660515 z"
     id="path40" />
</svg>
